<svg width="172" height="48" viewBox="0 0 172 48" fill="none" xmlns="http://www.w3.org/2000/svg">
<g clip-path="url(#clip0_4_467)">
<path d="M34.1108 2.43823C31.1024 6.6454 27.33 9.56174 22.8732 11.5219C21.3292 11.0916 19.7375 10.8685 18.1776 10.8844C16.6177 10.8685 15.026 11.0916 13.482 11.5219C9.02513 9.56174 5.25272 6.6454 2.22843 2.43823C1.30523 4.73305 -2.18066 12.6374 2.02151 23.6813C2.02151 23.6813 0.668536 29.4502 3.15164 34.4064C3.15164 34.4064 6.73303 32.7809 9.56631 35.0597C12.5429 37.4821 11.5878 39.7928 13.6889 41.8008C15.4876 43.6334 18.1776 43.6334 18.1776 43.6334C18.1776 43.6334 20.8676 43.6334 22.6663 41.8008C24.7673 39.8087 23.8123 37.4821 26.7888 35.0597C29.6221 32.7809 33.2035 34.4064 33.2035 34.4064C35.6707 29.4502 34.3337 23.6813 34.3337 23.6813C38.5199 12.6374 35.0181 4.71712 34.1108 2.43823ZM4.26585 22.1514C1.97376 17.4502 1.35298 10.996 2.80146 5.8964C4.71153 10.7251 7.30606 12.9084 10.394 15.2032C9.07288 17.9123 6.62161 20.494 4.26585 22.1514ZM10.8397 30.4382C9.04104 29.6414 8.65903 28.0637 8.65903 28.0637C11.1262 26.5179 14.7235 27.6972 14.8509 31.3625C12.9408 30.2151 12.32 31.0757 10.8397 30.4382ZM18.1776 43.4422C16.8883 43.4422 15.8377 42.5179 15.8377 41.3864C15.8377 40.255 16.8883 39.3307 18.1776 39.3307C19.4669 39.3307 20.5174 40.255 20.5174 41.3864C20.5015 42.5179 19.4669 43.4422 18.1776 43.4422ZM25.4995 30.4382C24.0352 31.0757 23.3985 30.2151 21.5043 31.3625C21.6157 27.6972 25.229 26.5179 27.6961 28.0637C27.6802 28.0637 27.2982 29.6414 25.4995 30.4382ZM32.0734 22.1514C29.7336 20.494 27.2664 17.9123 25.9452 15.2032C29.0332 12.9084 31.6277 10.741 33.5378 5.8964C35.0022 10.996 34.3655 17.4502 32.0734 22.1514Z" fill="#F7F7F7"/>
<path d="M48.4682 11.3466H53.7687L64.2263 27.5378V11.3466H69.6701V36.3984H64.4014L53.9119 20.2071V36.3984H48.4682V11.3466Z" fill="#F7F7F7"/>
<path d="M74.2383 15.7291C73.6653 15.1872 73.3788 14.486 73.3788 13.6574C73.3788 12.8446 73.6653 12.1593 74.2383 11.6016C74.8113 11.0438 75.5117 10.757 76.3553 10.757C77.183 10.757 77.8993 11.0438 78.4723 11.6016C79.0453 12.1593 79.3319 12.8446 79.3319 13.6574C79.3319 14.486 79.0453 15.1872 78.4723 15.7291C77.8993 16.2868 77.1989 16.5578 76.3553 16.5578C75.5117 16.5418 74.8113 16.2709 74.2383 15.7291ZM73.6175 19.2032H79.0613V36.3984H73.6175V19.2032Z" fill="#F7F7F7"/>
<path d="M88.8186 44.3187C87.6566 44.1115 86.6857 43.8247 85.9057 43.4582V39.4741C87.7362 40.2868 89.8691 40.6852 92.2727 40.6852C94.1987 40.6852 95.5835 40.2868 96.4271 39.506C97.2548 38.7251 97.6845 37.5299 97.6845 35.9522V34.8844C96.9524 35.5538 96.0451 36.0637 94.9627 36.4143C93.8962 36.7649 92.7502 36.9402 91.5245 36.9402C89.7577 36.9402 88.1819 36.5578 86.7812 35.7769C85.3805 34.996 84.2981 33.9123 83.5022 32.5418C82.7223 31.1554 82.3243 29.5777 82.3243 27.8088C82.3243 25.992 82.7064 24.3984 83.4863 23.0119C84.2663 21.6255 85.3327 20.5578 86.7016 19.8088C88.0705 19.0597 89.6463 18.6773 91.4131 18.6773C92.7502 18.6773 93.9281 18.8685 94.9627 19.251C95.9814 19.6335 96.9523 20.239 97.8596 21.0837V19.2191H103.081V35.3147C103.081 38.2948 102.205 40.6056 100.438 42.2311C98.6714 43.8566 95.9496 44.6693 92.2727 44.6693C91.1266 44.6374 89.9806 44.5259 88.8186 44.3187ZM95.8381 31.8247C96.7295 31.2191 97.3503 30.4064 97.6845 29.4024V26.1833C97.3025 25.1793 96.6818 24.3825 95.8063 23.7769C94.9309 23.1872 93.944 22.8844 92.8138 22.8844C91.3654 22.8844 90.1716 23.3307 89.2484 24.2072C88.3252 25.0837 87.8636 26.2789 87.8636 27.7609C87.8636 29.2589 88.3252 30.4701 89.2484 31.3785C90.1716 32.2868 91.3495 32.7331 92.8138 32.7331C93.9281 32.749 94.9468 32.4303 95.8381 31.8247Z" fill="#F7F7F7"/>
<path d="M106.837 9.91232H112.249V21.1633C113.061 20.3346 113.984 19.6972 115.003 19.2828C116.021 18.8685 117.12 18.6613 118.297 18.6613C120.637 18.6613 122.388 19.2828 123.534 20.5418C124.696 21.8008 125.269 23.49 125.269 25.6095V36.3984H119.857V26.2151C119.857 24 118.839 22.8844 116.785 22.8844C115.878 22.8844 115.034 23.1075 114.239 23.5538C113.459 24 112.79 24.6534 112.233 25.5139V36.4143H106.821V9.91232H106.837Z" fill="#F7F7F7"/>
<path d="M131.477 35.2669C130.442 34.1514 129.917 32.6056 129.917 30.6295V23.1076H127.418V19.2032H129.917V14.0398H135.329V19.2032H139.372V23.1076H135.329V29.9123C135.329 30.9163 135.52 31.6335 135.902 32.0797C136.284 32.5259 136.968 32.749 137.939 32.749C138.719 32.749 139.483 32.5578 140.2 32.1753V36.2231C139.101 36.7012 137.717 36.9402 136.045 36.9402C134.04 36.9402 132.512 36.3825 131.477 35.2669Z" fill="#F7F7F7"/>
<path d="M142.699 9.91232H148.111V36.3984H142.699V9.91232Z" fill="#F7F7F7"/>
<path d="M154.382 43.3466C153.634 43.251 153.061 43.1235 152.679 42.9482V38.9004C153.363 39.1553 154.127 39.2988 154.971 39.2988C155.83 39.2988 156.483 39.1075 156.929 38.7251C157.374 38.3426 157.741 37.753 158.027 36.9402L158.6 35.4741L151.151 19.2032H156.594L161.465 31.0597L166.081 19.2032H171.493L164.187 37.5936C163.375 39.6175 162.372 41.1155 161.179 42.0717C159.985 43.0279 158.457 43.5059 156.594 43.5059C155.878 43.49 155.146 43.4422 154.382 43.3466Z" fill="#F7F7F7"/>
</g>
<defs>
<clipPath id="clip0_4_467">
<rect width="171.907" height="48" fill="white"/>
</clipPath>
</defs>
</svg>
